<mxfile host="app.diagrams.net" modified="2021-04-27T09:44:46.078Z" agent="5.0 (Windows NT 10.0; Win64; x64) AppleWebKit/537.36 (KHTML, like Gecko) Chrome/90.0.4430.85 Safari/537.36 Edg/90.0.818.46" etag="FEYyLkBjqnZPgmHb6eld" version="14.6.6" type="github">
  <diagram id="r4dBImqF64Q2Rql-agz5" name="Page-1">
    <mxGraphModel dx="1689" dy="1091" grid="1" gridSize="10" guides="1" tooltips="1" connect="1" arrows="1" fold="1" page="1" pageScale="1" pageWidth="827" pageHeight="1169" math="0" shadow="0">
      <root>
        <mxCell id="0" />
        <mxCell id="1" parent="0" />
        <mxCell id="bWRY1WSYJybc7Zgqh_eX-11" style="edgeStyle=orthogonalEdgeStyle;rounded=0;orthogonalLoop=1;jettySize=auto;html=1;entryX=0.5;entryY=1;entryDx=0;entryDy=0;entryPerimeter=0;" edge="1" parent="1" source="bWRY1WSYJybc7Zgqh_eX-7" target="bWRY1WSYJybc7Zgqh_eX-10">
          <mxGeometry relative="1" as="geometry" />
        </mxCell>
        <mxCell id="bWRY1WSYJybc7Zgqh_eX-7" value="" style="shape=cylinder3;whiteSpace=wrap;html=1;boundedLbl=1;backgroundOutline=1;size=15;" vertex="1" parent="1">
          <mxGeometry x="560" y="810" width="190" height="230" as="geometry" />
        </mxCell>
        <mxCell id="bWRY1WSYJybc7Zgqh_eX-9" style="edgeStyle=orthogonalEdgeStyle;rounded=0;orthogonalLoop=1;jettySize=auto;html=1;entryX=0.5;entryY=1;entryDx=0;entryDy=0;entryPerimeter=0;" edge="1" parent="1" source="bWRY1WSYJybc7Zgqh_eX-8" target="bWRY1WSYJybc7Zgqh_eX-7">
          <mxGeometry relative="1" as="geometry">
            <mxPoint x="655" y="1100" as="targetPoint" />
            <Array as="points">
              <mxPoint x="205" y="720" />
              <mxPoint x="430" y="720" />
              <mxPoint x="430" y="1090" />
              <mxPoint x="655" y="1090" />
            </Array>
          </mxGeometry>
        </mxCell>
        <mxCell id="bWRY1WSYJybc7Zgqh_eX-8" value="" style="shape=cylinder3;whiteSpace=wrap;html=1;boundedLbl=1;backgroundOutline=1;size=15;" vertex="1" parent="1">
          <mxGeometry x="110" y="810" width="190" height="230" as="geometry" />
        </mxCell>
        <mxCell id="bWRY1WSYJybc7Zgqh_eX-13" style="edgeStyle=orthogonalEdgeStyle;rounded=0;orthogonalLoop=1;jettySize=auto;html=1;" edge="1" parent="1" source="bWRY1WSYJybc7Zgqh_eX-10">
          <mxGeometry relative="1" as="geometry">
            <mxPoint x="205" y="612" as="targetPoint" />
            <Array as="points">
              <mxPoint x="650" y="310" />
              <mxPoint x="410" y="310" />
              <mxPoint x="410" y="680" />
              <mxPoint x="205" y="680" />
              <mxPoint x="205" y="612" />
            </Array>
          </mxGeometry>
        </mxCell>
        <mxCell id="bWRY1WSYJybc7Zgqh_eX-10" value="" style="shape=cylinder3;whiteSpace=wrap;html=1;boundedLbl=1;backgroundOutline=1;size=15;" vertex="1" parent="1">
          <mxGeometry x="560" y="390" width="190" height="230" as="geometry" />
        </mxCell>
        <mxCell id="bWRY1WSYJybc7Zgqh_eX-15" style="edgeStyle=orthogonalEdgeStyle;rounded=0;orthogonalLoop=1;jettySize=auto;html=1;entryX=0.5;entryY=1;entryDx=0;entryDy=0;entryPerimeter=0;" edge="1" parent="1" source="bWRY1WSYJybc7Zgqh_eX-12" target="bWRY1WSYJybc7Zgqh_eX-14">
          <mxGeometry relative="1" as="geometry" />
        </mxCell>
        <mxCell id="bWRY1WSYJybc7Zgqh_eX-12" value="" style="shape=cylinder3;whiteSpace=wrap;html=1;boundedLbl=1;backgroundOutline=1;size=15;" vertex="1" parent="1">
          <mxGeometry x="110" y="380" width="190" height="230" as="geometry" />
        </mxCell>
        <mxCell id="bWRY1WSYJybc7Zgqh_eX-14" value="" style="shape=cylinder3;whiteSpace=wrap;html=1;boundedLbl=1;backgroundOutline=1;size=15;" vertex="1" parent="1">
          <mxGeometry x="110" y="60" width="190" height="230" as="geometry" />
        </mxCell>
      </root>
    </mxGraphModel>
  </diagram>
</mxfile>
